<?xml version="1.0" encoding="UTF-8" standalone="no"?>
<!DOCTYPE svg PUBLIC "-//W3C//DTD SVG 20010904//EN"
              "http://www.w3.org/TR/2001/REC-SVG-20010904/DTD/svg10.dtd">

<svg xmlns="http://www.w3.org/2000/svg"
     width="1.70667in" height="1.70667in"
     viewBox="0 0 512 512">
  <path id="Selection"
        fill="black" 
        d="M 107.42,28.68
           C 112.54,27.46 123.26,28.00 129.00,28.00
             129.00,28.00 169.00,28.00 169.00,28.00
             169.00,28.00 296.00,28.00 296.00,28.00
             296.00,28.00 335.00,28.00 335.00,28.00
             339.26,28.01 343.21,27.90 346.74,30.77
             350.99,34.21 350.99,39.04 351.00,44.00
             351.00,44.00 351.00,44.74 351.00,45.84
             351.00,48.97 351.00,55.00 351.00,55.00
             350.77,68.80 340.31,69.98 329.00,70.00
             329.00,70.00 161.00,70.00 161.00,70.00
             161.00,70.00 146.00,69.00 146.00,69.00
             146.00,69.00 110.00,69.00 110.00,69.00
             101.91,69.02 104.79,69.29 98.00,71.48
             98.00,71.48 92.42,73.08 92.42,73.08
             87.18,75.25 77.39,82.09 73.83,86.67
             73.83,86.67 69.85,93.00 69.85,93.00
             64.39,101.24 62.02,106.94 62.00,117.00
             62.00,117.00 62.00,291.00 62.00,291.00
             62.00,291.00 62.00,386.00 62.00,386.00
             62.11,392.27 66.50,408.67 69.68,414.00
             74.04,421.32 86.29,432.27 94.00,436.00
             98.08,437.98 104.48,438.99 109.00,439.00
             109.00,439.00 388.00,439.00 388.00,439.00
             392.52,438.99 398.92,437.98 403.00,436.00
             410.95,432.15 423.71,420.74 427.89,413.00
             431.32,406.65 434.99,391.31 435.00,384.00
             435.00,384.00 435.00,231.00 435.00,231.00
             435.00,231.00 435.00,197.00 435.00,197.00
             435.01,193.81 434.71,189.91 436.74,187.23
             439.47,183.61 443.97,184.01 448.00,184.00
             448.00,184.00 465.00,184.00 465.00,184.00
             474.40,184.18 473.99,189.15 474.00,197.00
             474.00,197.00 474.00,401.00 474.00,401.00
             473.98,412.76 470.29,420.79 465.06,431.00
             465.06,431.00 460.32,440.00 460.32,440.00
             458.27,442.99 454.69,446.36 452.17,449.12
             438.03,464.55 431.56,468.75 412.00,476.04
             412.00,476.04 406.00,478.46 406.00,478.46
             406.00,478.46 396.00,479.26 396.00,479.26
             389.71,480.29 392.63,480.98 384.00,481.00
             384.00,481.00 113.00,481.00 113.00,481.00
             104.37,480.98 107.29,480.29 101.00,479.26
             101.00,479.26 91.00,478.46 91.00,478.46
             91.00,478.46 85.00,476.04 85.00,476.04
             65.44,468.75 58.97,464.55 44.83,449.12
             42.31,446.36 38.73,442.99 36.68,440.00
             36.68,440.00 31.94,431.00 31.94,431.00
             26.71,420.79 23.02,412.76 23.00,401.00
             23.00,401.00 23.00,108.00 23.00,108.00
             23.01,102.02 23.94,97.29 25.57,92.65
             26.87,88.95 28.61,85.32 30.69,81.17
             30.69,81.17 36.68,69.46 36.68,69.46
             36.68,69.46 44.88,60.54 44.88,60.54
             44.88,60.54 49.68,54.68 49.68,54.68
             49.68,54.68 54.26,51.19 54.26,51.19
             54.26,51.19 61.51,44.36 61.51,44.36
             61.51,44.36 82.00,34.18 82.00,34.18
             82.00,34.18 94.00,30.14 94.00,30.14
             99.71,29.36 100.84,30.91 107.42,28.68 Z
           M 102.00,430.00
           C 102.56,420.44 109.11,418.35 114.37,411.00
             120.18,402.88 124.12,391.00 122.56,381.00
             119.11,358.88 105.79,345.19 92.77,328.00
             83.98,316.40 76.02,306.14 76.00,291.00
             75.99,286.57 75.62,277.91 76.80,274.00
             77.75,270.83 79.80,267.73 81.67,265.01
             90.97,251.55 101.04,250.83 116.00,251.00
             132.55,251.20 146.32,261.44 160.00,269.55
             160.00,269.55 177.00,279.01 177.00,279.01
             177.00,279.01 235.00,313.13 235.00,313.13
             244.51,318.59 264.86,330.73 276.00,329.58
             278.87,329.29 282.57,327.55 284.91,325.89
             305.57,311.25 285.75,287.23 274.68,274.00
             274.68,274.00 253.18,250.00 253.18,250.00
             253.18,250.00 247.68,243.00 247.68,243.00
             235.22,228.11 229.55,222.84 220.63,205.00
             213.82,191.38 211.84,187.27 209.57,172.00
             207.40,157.37 207.04,151.43 211.83,137.00
             215.06,127.28 219.88,118.20 228.00,111.67
             233.04,107.61 242.96,101.29 249.00,99.21
             258.10,96.07 271.39,92.55 281.00,93.09
             292.96,93.77 303.84,97.79 314.00,104.06
             325.10,110.92 331.76,119.55 346.00,117.82
             361.86,115.89 363.59,104.99 368.88,93.00
             370.41,89.52 373.29,85.04 375.60,82.00
             389.74,63.38 415.69,51.04 439.00,51.20
             439.00,51.20 456.99,51.20 456.99,51.20
             464.08,48.80 465.76,36.87 470.94,35.45
             475.61,34.18 474.13,41.84 476.60,44.26
             478.35,45.98 481.30,45.82 482.67,46.58
             483.98,47.31 484.52,48.34 483.83,49.79
             482.36,52.86 473.37,54.75 469.40,60.09
             467.07,63.23 467.99,68.18 468.00,72.00
             468.00,72.00 468.00,81.00 468.00,81.00
             467.96,104.23 454.61,129.01 437.00,143.68
             427.89,151.27 421.64,151.62 416.00,155.64
             411.91,158.55 409.40,162.27 402.00,167.25
             386.91,177.42 369.43,184.57 351.00,184.99
             332.64,185.40 318.66,179.65 303.00,170.86
             294.39,166.03 287.62,159.98 279.21,169.09
             272.97,175.86 275.62,181.21 280.10,188.00
             280.10,188.00 285.42,195.00 285.42,195.00
             285.42,195.00 297.20,212.00 297.20,212.00
             297.20,212.00 305.33,223.00 305.33,223.00
             305.33,223.00 342.56,276.00 342.56,276.00
             349.31,287.69 353.98,297.18 354.00,311.00
             354.00,311.00 354.00,316.00 354.00,316.00
             353.99,325.04 351.94,331.76 348.42,340.00
             340.03,359.62 327.70,374.91 307.00,382.30
             297.21,385.80 290.19,385.12 280.00,385.00
             268.14,384.85 255.36,377.26 245.00,371.96
             221.23,359.80 187.86,333.40 165.00,317.13
             155.28,310.21 145.02,302.95 134.00,298.21
             129.62,296.32 123.47,294.39 119.10,297.09
             107.76,304.10 117.98,324.85 122.94,333.00
             129.79,344.26 136.11,359.95 138.13,373.00
             138.70,376.65 140.03,380.28 139.66,384.00
             138.34,397.51 132.62,408.60 123.00,417.98
             117.61,423.25 109.71,429.45 102.00,430.00 Z
           M 416.11,68.64
           C 408.52,73.31 414.45,80.36 419.81,78.24
             425.08,76.16 424.81,67.65 416.11,68.64 Z
           M 445.02,97.49
           C 435.99,101.10 442.23,108.87 447.87,107.64
             452.59,106.62 453.72,97.44 445.02,97.49 Z
           M 454.00,326.00M 347.50,34.75" />
</svg>
